<svg width="24" height="24" viewBox="0 0 24 24" fill="none" xmlns="http://www.w3.org/2000/svg">
<path d="M12.0022 7.37225C9.16453 7.37225 6.87563 9.66166 6.87563 12.5C6.87563 15.3383 9.16453 17.6277 12.0022 17.6277C14.8399 17.6277 17.1288 15.3383 17.1288 12.5C17.1288 9.66166 14.8399 7.37225 12.0022 7.37225ZM12.0022 15.8337C10.1684 15.8337 8.66927 14.3387 8.66927 12.5C8.66927 10.6613 10.164 9.16629 12.0022 9.16629C13.8405 9.16629 15.3352 10.6613 15.3352 12.5C15.3352 14.3387 13.836 15.8337 12.0022 15.8337ZM18.5343 7.1625C18.5343 7.82746 17.9989 8.35853 17.3385 8.35853C16.6737 8.35853 16.1428 7.82299 16.1428 7.1625C16.1428 6.50201 16.6782 5.96647 17.3385 5.96647C17.9989 5.96647 18.5343 6.50201 18.5343 7.1625ZM21.9297 8.37638C21.8539 6.77424 21.488 5.35507 20.3146 4.18582C19.1456 3.01657 17.7267 2.65062 16.1249 2.57029C14.4741 2.47657 9.52593 2.47657 7.87507 2.57029C6.27775 2.64616 4.8589 3.01211 3.68544 4.18136C2.51199 5.35061 2.15059 6.76978 2.07027 8.37192C1.97658 10.0232 1.97658 14.9724 2.07027 16.6236C2.14612 18.2258 2.51199 19.6449 3.68544 20.8142C4.8589 21.9834 6.27328 22.3494 7.87507 22.4297C9.52593 22.5234 14.4741 22.5234 16.1249 22.4297C17.7267 22.3538 19.1456 21.9879 20.3146 20.8142C21.4835 19.6449 21.8494 18.2258 21.9297 16.6236C22.0234 14.9724 22.0234 10.0276 21.9297 8.37638ZM19.797 18.3953C19.449 19.2701 18.7752 19.9439 17.8963 20.2965C16.58 20.8186 13.4568 20.6981 12.0022 20.6981C10.5477 20.6981 7.41997 20.8142 6.1082 20.2965C5.23369 19.9484 4.55996 19.2745 4.20747 18.3953C3.68544 17.0788 3.80591 13.9549 3.80591 12.5C3.80591 11.0451 3.68991 7.91671 4.20747 6.60465C4.55549 5.72995 5.22922 5.05606 6.1082 4.7035C7.42443 4.18136 10.5477 4.30185 12.0022 4.30185C13.4568 4.30185 16.5845 4.18582 17.8963 4.7035C18.7708 5.0516 19.4445 5.72548 19.797 6.60465C20.319 7.92118 20.1986 11.0451 20.1986 12.5C20.1986 13.9549 20.319 17.0833 19.797 18.3953Z" fill="#3A86FF"/>
</svg>
