<svg width="24" height="24" viewBox="0 0 24 24" fill="none" xmlns="http://www.w3.org/2000/svg">
<path d="M6.47679 22.5H2.33036V9.14702H6.47679V22.5ZM4.40134 7.32555C3.07545 7.32555 2 6.22732 2 4.90139C2 4.2645 2.253 3.6537 2.70334 3.20335C3.15367 2.753 3.76446 2.5 4.40134 2.5C5.03821 2.5 5.649 2.753 6.09934 3.20335C6.54968 3.6537 6.80268 4.2645 6.80268 4.90139C6.80268 6.22732 5.72679 7.32555 4.40134 7.32555ZM21.9955 22.5H17.858V15.9999C17.858 14.4507 17.8268 12.4641 15.7022 12.4641C13.5464 12.4641 13.2161 14.1471 13.2161 15.8882V22.5H9.07411V9.14702H13.0509V10.9685H13.1089C13.6625 9.91936 15.0147 8.81219 17.0321 8.81219C21.2286 8.81219 22 11.5756 22 15.165V22.5H21.9955Z" fill="#3A86FF"/>
</svg>
